<?xml version="1.0" encoding="utf-8"?>
<!-- Generator: Adobe Illustrator 27.0.0, SVG Export Plug-In . SVG Version: 6.00 Build 0)  -->
<svg version="1.1" id="レイヤー_1" xmlns="http://www.w3.org/2000/svg" xmlns:xlink="http://www.w3.org/1999/xlink" x="0px"
	 y="0px" viewBox="0 0 667 667" style="enable-background:new 0 0 667 667;" xml:space="preserve">
<style type="text/css">
	.st0{fill:#C6C4C4;}
	.st1{fill:#EAEAEA;}
	.st2{fill:#3957AF;}
	.st3{fill:#C19C74;}
</style>
<g id="front">
	<path class="st0" d="M313.7,220.4c3.1-7,6.9-13.9,10.7-20.2c-10.5-16.1-17.2-40.3-21.4-56.2c-31,33.2-35.7,76.8-35,100.3
		C293,228,313.7,220.4,313.7,220.4z"/>
	<path class="st1" d="M415.1,255.8l-6.8-6l-0.3-8.6c-0.6-2.2-2.9-46.1,29.6-105.6c-33.9,12-77.9,37.5-104.6,93.7l-3.9,7.7l-7.9,3.2
		c-0.7,0.7-98,39.5-128.6,120.8c-4,10.2-8.7,21.3-13.4,33.2c-9,22.2-17.4,43.8-24.3,64.7c8.9,8.9,27.8,26.6,53.7,43.9
		c33.5,22.4,85.8,48.6,144.4,46.4c61.4-2.4,118.1-35,168.6-97C507.8,383.4,475,309.8,415.1,255.8z"/>
	<path d="M540.6,439.3c-16-71-51.7-144.9-112.9-199.2c0,0-4.4-59.7,54.8-134.7c0,0-89.4,3.2-147.1,79c-9-18.9-16.2-47.4-18.5-58.9
		l-2.9-14.4l-11.3,9.5c-54.3,45-53.8,113-52,135.6c-29.4,22.2-61.7,53.9-78,97c-10.5,28.2-25.9,62.8-38.2,99.3l16.8,17.8
		c1-3.3,2.1-6.7,3.3-10.1c9,9,27.9,26.6,53.5,43.7c32.3,21.6,81.8,46.7,137.8,46.7c2.4,0,4.8,0,7.2-0.1
		c61.5-2.4,118.2-34.9,168.8-96.7c0.4,1.9,0.7,3.8,1.1,5.7L540.6,439.3z M303,144.1c4.2,15.9,10.9,40,21.4,56.2
		c-3.8,6.2-7.6,13.2-10.7,20.2c0,0-20.7,7.6-45.7,24C267.3,220.8,272.1,177.2,303,144.1z M353,549.3c-58.6,2.3-110.9-24-144.4-46.4
		c-25.9-17.3-44.9-35.1-53.7-43.9c7-20.8,15.3-42.5,24.3-64.7c4.7-11.9,9.4-23.1,13.4-33.2c30.6-81.3,127.9-120.1,128.6-120.8
		l7.9-3.2l3.9-7.7c26.7-56.2,70.7-81.7,104.6-93.7c-32.5,59.5-30.2,103.4-29.6,105.6l0.3,8.6l6.8,6
		c59.9,53.9,92.8,127.5,106.5,196.4C471.1,514.3,414.5,546.9,353,549.3z"/>
	<path d="M384.8,424.8c0,0,10.7-51.2,59.6-38.3C493.1,398.9,403.3,442.7,384.8,424.8z"/>
	<path d="M263.1,412.3c0,0-14.1-62.2-54.2-38.4C180.5,390.8,246.4,425.8,263.1,412.3z"/>
</g>
<path class="st2" d="M413.2,112.4c0,0,0-8.8-9.9-4.1c0,0-111.7,138.5-112,139c-10.2,12.3-16.3,28.2-16.3,45.4
	c0,39.4,31.9,71.4,71.4,71.4s71.4-31.9,71.4-71.4C417.6,291,413.2,112.4,413.2,112.4z"/>
<path class="st2" d="M480.1,131.7l2.5,49.9c29.6,32.3,47.5,74.8,47.5,121.4c0,100.9-84.1,182.6-187.9,182.6S154.3,403.9,154.3,303
	c0-88.8,65.3-162.9,151.8-179.2l33.1-39.4c-1.8,0-3.6-0.1-5.3-0.1c-137.6,0-249.1,111.5-249.1,249.1s111.5,249.1,249.1,249.1
	S582.9,471,582.9,333.4C582.9,250.5,542.4,177,480.1,131.7z"/>
<g>
	<path class="st3" d="M278.9,453.2c0.4,7.1,5.2,26.2,37.8,27.7c36.1,1.6,48.1-15,51.2-23c-6.2-3.1-20-8-47.7-9.2
		C292.2,446.7,281.8,451.2,278.9,453.2z"/>
	<path d="M380.9,449.2c-1.3-1.5-14.9-12.8-60.1-15.5c-43.8-2.6-54.1,8.3-55.7,13.2l-0.8,1.4l-0.1,1.4c0,0.7-0.7,16.4,10.7,29.3
		c9.4,10.4,22.5,16,40.4,16.7c59.2,2.6,67.4-38.7,67.4-39.4l0.9-3.5L380.9,449.2z M316.6,481.3c-31.9-1.4-37.4-20.9-37.8-27.7
		c3.6-2,13.6-6.5,42-4.6c27.7,1.2,41.5,6.8,47.7,9.2C364,466.2,352,482.8,316.6,481.3z"/>
</g>
</svg>
